<svg width="560" height="420" viewBox="0 0 560 420" fill="none" xmlns="http://www.w3.org/2000/svg">
  <defs>
    <linearGradient id="bg" x1="36" y1="20" x2="518" y2="392" gradientUnits="userSpaceOnUse">
      <stop stop-color="#F3FAFF"/><stop offset="0.52" stop-color="#F2EEFF"/><stop offset="1" stop-color="#FFF7E6"/>
    </linearGradient>
    <linearGradient id="blue" x1="180" y1="80" x2="430" y2="326" gradientUnits="userSpaceOnUse">
      <stop stop-color="#6C63FF"/><stop offset="1" stop-color="#1082F4"/>
    </linearGradient>
    <filter id="shadow" x="42" y="38" width="486" height="342" filterUnits="userSpaceOnUse" color-interpolation-filters="sRGB">
      <feDropShadow dx="0" dy="20" stdDeviation="24" flood-color="#4852B8" flood-opacity="0.18"/>
    </filter>
  </defs>
  <rect width="560" height="420" rx="42" fill="url(#bg)"/>
  <circle cx="462" cy="122" r="68" fill="#EDE6FF" fill-opacity="0.75"/>
  <circle cx="110" cy="274" r="74" fill="#DDF2FF" fill-opacity="0.7"/>
  <g filter="url(#shadow)">
    <rect x="92" y="76" width="330" height="230" rx="24" fill="white" fill-opacity="0.82" stroke="#D8E0FF"/>
    <rect x="92" y="76" width="330" height="44" rx="24" fill="#111A3A"/>
    <circle cx="120" cy="98" r="6" fill="#FF5F67"/>
    <circle cx="140" cy="98" r="6" fill="#FFC15A"/>
    <circle cx="160" cy="98" r="6" fill="#40D18B"/>
    <rect x="120" y="144" width="58" height="48" rx="12" fill="#EEF6FF" stroke="#D7E3FF"/>
    <path d="M132 157l17 13 17-13" stroke="#3C74E8" stroke-width="5" stroke-linecap="round" stroke-linejoin="round"/>
    <rect x="206" y="142" width="150" height="9" rx="4.5" fill="#C9D1E7"/>
    <rect x="206" y="166" width="104" height="9" rx="4.5" fill="#D8DEEF"/>
    <rect x="206" y="216" width="160" height="9" rx="4.5" fill="#CBD3E9"/>
    <rect x="206" y="240" width="126" height="9" rx="4.5" fill="#D9DFF0"/>
    <rect x="112" y="214" width="68" height="10" rx="5" fill="#C7D1EC"/>
    <rect x="112" y="238" width="50" height="10" rx="5" fill="#D9DFF0"/>
  </g>
  <path d="M406 170l108 52-108 64-108-64 108-52Z" fill="white" fill-opacity="0.9" stroke="#D7E0FF" stroke-width="2"/>
  <path d="M298 222l108 84 108-84" stroke="#C8D3F4" stroke-width="4" stroke-linejoin="round"/>
  <path d="M400 146l70 26v49c0 48-31 78-70 94-39-16-70-46-70-94v-49l70-26Z" fill="url(#blue)" fill-opacity="0.88" stroke="#DDE7FF" stroke-width="6" stroke-linejoin="round"/>
  <path d="M371 226l23 24 45-54" stroke="white" stroke-width="14" stroke-linecap="round" stroke-linejoin="round"/>
  <rect x="232" y="192" width="116" height="86" rx="16" fill="white" fill-opacity="0.92" stroke="#DDE4FF"/>
  <path d="M262 250l28-48 28 48h-56Z" fill="#FF6570"/>
  <rect x="332" y="76" width="98" height="58" rx="14" fill="white" fill-opacity="0.9" stroke="#DDE5FF"/>
  <path d="M352 104h58" stroke="#C7D0E8" stroke-width="7" stroke-linecap="round"/>
  <circle cx="478" cy="326" r="42" fill="url(#blue)"/>
  <circle cx="478" cy="302" r="13" fill="white"/>
  <path d="M453 346c5-17 44-17 50 0" stroke="white" stroke-width="11" stroke-linecap="round"/>
</svg>