<svg width="560" height="420" viewBox="0 0 560 420" fill="none" xmlns="http://www.w3.org/2000/svg">
  <defs><linearGradient id="bg" x1="40" y1="24" x2="520" y2="390"><stop stop-color="#F7FBFF"/><stop offset=".52" stop-color="#F2EEFF"/><stop offset="1" stop-color="#FFF8EA"/></linearGradient><linearGradient id="blue" x1="270" y1="120" x2="454" y2="330"><stop stop-color="#5C79FF"/><stop offset="1" stop-color="#005EEA"/></linearGradient><filter id="s" x="30" y="35" width="500" height="350" filterUnits="userSpaceOnUse"><feDropShadow dx="0" dy="22" stdDeviation="24" flood-color="#4456AA" flood-opacity=".20"/></filter></defs>
  <rect width="560" height="420" rx="42" fill="url(#bg)"/><circle cx="432" cy="108" r="82" fill="#EDE6FF" fill-opacity=".72"/><circle cx="140" cy="280" r="60" fill="#DFF3FF" fill-opacity=".72"/>
  <g filter="url(#s)"><rect x="218" y="62" width="178" height="260" rx="24" fill="#1A2449"/><rect x="238" y="86" width="138" height="212" rx="14" fill="white"/><rect x="270" y="46" width="74" height="42" rx="10" fill="#101832"/><circle cx="307" cy="54" r="9" fill="#101832" stroke="#DDE7FF" stroke-width="5"/><text x="260" y="123" fill="#101832" font-family="Arial" font-size="14" font-weight="700">INCIDENT PLAN</text><path d="M260 154h20v20h-20zM260 194h20v20h-20zM260 234h20v20h-20z" stroke="#2E75F0" stroke-width="4"/><path d="M264 162l6 6 13-16M264 202l6 6 13-16M264 242l6 6 13-16" stroke="#2E75F0" stroke-width="5" stroke-linecap="round" stroke-linejoin="round"/><path d="M294 160h58M294 200h58M294 240h58" stroke="#B7BED5" stroke-width="7" stroke-linecap="round"/><path d="M294 176h40M294 216h40M294 256h40" stroke="#D6DBE9" stroke-width="6" stroke-linecap="round"/></g>
  <path d="M126 122l44 76H82l44-76Z" fill="#EA3E4E" stroke="#FFD7DB" stroke-width="5"/><rect x="122" y="150" width="9" height="34" rx="4" fill="white"/><circle cx="126" cy="193" r="5" fill="white"/>
  <circle cx="148" cy="292" r="54" fill="#F7FAFF" stroke="#C9D8FF" stroke-width="6"/><path d="M148 258v36l28 18" stroke="#1B3774" stroke-width="7" stroke-linecap="round"/><circle cx="148" cy="292" r="7" fill="#1B3774"/>
  <path d="M420 158l76 28v54c0 52-34 85-76 102-42-17-76-50-76-102v-54l76-28Z" fill="url(#blue)" stroke="#DDE7FF" stroke-width="6"/><rect x="394" y="226" width="52" height="48" rx="9" fill="white"/><path d="M406 226v-22c0-20 28-20 28 0v22" stroke="white" stroke-width="10" stroke-linecap="round"/><circle cx="420" cy="249" r="6" fill="#123C9E"/><path d="M420 253v12" stroke="#123C9E" stroke-width="5" stroke-linecap="round"/>
  <rect x="446" y="146" width="92" height="142" rx="20" fill="white" fill-opacity=".9" stroke="#DDE5FF"/><circle cx="476" cy="182" r="16" fill="#3178F2"/><path d="M455 220h58M455 244h58M455 268h40" stroke="#376CE5" stroke-width="7" stroke-linecap="round"/>
</svg>