<svg xmlns="http://www.w3.org/2000/svg" viewBox="0 0 900 680" role="img" aria-labelledby="title desc">
  <title id="title">Ransomware readiness service illustration</title>
  <desc id="desc">A shield, checklist, magnifying glass, files, and backup cloud in a soft blue and violet glass style.</desc>
  <defs>
    <linearGradient id="bg" x1="0" y1="0" x2="1" y2="1">
      <stop offset="0" stop-color="#f8fbff"/>
      <stop offset="0.48" stop-color="#eef0ff"/>
      <stop offset="1" stop-color="#dff3ff"/>
    </linearGradient>
    <linearGradient id="glass" x1="0" y1="0" x2="1" y2="1">
      <stop offset="0" stop-color="#ffffff" stop-opacity="0.82"/>
      <stop offset="1" stop-color="#dbe6ff" stop-opacity="0.34"/>
    </linearGradient>
    <linearGradient id="accent" x1="0" y1="0" x2="1" y2="1">
      <stop offset="0" stop-color="#6eaedf"/>
      <stop offset="0.52" stop-color="#7364c9"/>
      <stop offset="1" stop-color="#4f4a8f"/>
    </linearGradient>
    <filter id="shadow" x="-20%" y="-20%" width="140%" height="140%">
      <feDropShadow dx="0" dy="24" stdDeviation="26" flood-color="#445380" flood-opacity="0.2"/>
    </filter>
  </defs>
  <rect width="900" height="680" rx="52" fill="url(#bg)"/>
  <circle cx="690" cy="105" r="150" fill="#fff7e8" opacity="0.6"/>
  <circle cx="188" cy="552" r="160" fill="#dff3ff" opacity="0.75"/>
  <path d="M240 536c122 36 256 42 414 4" fill="none" stroke="#9ab5f1" stroke-width="3" opacity="0.42"/>
  <g filter="url(#shadow)">
    <rect x="115" y="118" width="275" height="348" rx="34" fill="url(#glass)" stroke="#fff" stroke-width="3"/>
    <rect x="155" y="178" width="146" height="18" rx="9" fill="#7364c9" opacity="0.34"/>
    <rect x="155" y="236" width="186" height="14" rx="7" fill="#4f4a8f" opacity="0.18"/>
    <rect x="155" y="284" width="174" height="14" rx="7" fill="#4f4a8f" opacity="0.18"/>
    <rect x="155" y="332" width="142" height="14" rx="7" fill="#4f4a8f" opacity="0.18"/>
    <path d="M160 231l22 22 42-52" fill="none" stroke="url(#accent)" stroke-width="15" stroke-linecap="round" stroke-linejoin="round" opacity="0.9"/>
    <path d="M160 327l22 22 42-52" fill="none" stroke="url(#accent)" stroke-width="15" stroke-linecap="round" stroke-linejoin="round" opacity="0.72"/>
  </g>
  <g filter="url(#shadow)">
    <path d="M526 112c48 42 108 50 160 52v136c0 108-64 176-160 222-96-46-160-114-160-222V164c52-2 112-10 160-52z" fill="url(#glass)" stroke="#fff" stroke-width="4"/>
    <path d="M526 166c35 26 72 34 112 38v92c0 72-40 119-112 156-72-37-112-84-112-156v-92c40-4 77-12 112-38z" fill="none" stroke="url(#accent)" stroke-width="16" opacity="0.72"/>
    <path d="M473 302l38 39 78-91" fill="none" stroke="url(#accent)" stroke-width="18" stroke-linecap="round" stroke-linejoin="round"/>
  </g>
  <g filter="url(#shadow)">
    <circle cx="660" cy="440" r="78" fill="url(#glass)" stroke="#fff" stroke-width="4"/>
    <circle cx="660" cy="440" r="42" fill="none" stroke="#7364c9" stroke-width="14" opacity="0.68"/>
    <path d="M695 475l68 68" stroke="#4f4a8f" stroke-width="18" stroke-linecap="round"/>
  </g>
  <g filter="url(#shadow)">
    <rect x="596" y="84" width="164" height="114" rx="26" fill="url(#glass)" stroke="#fff" stroke-width="3"/>
    <path d="M636 138c10-26 48-23 54 2 24-5 40 22 22 40H631c-26-15-18-49 5-42z" fill="none" stroke="#6eaedf" stroke-width="12" stroke-linecap="round" stroke-linejoin="round" opacity="0.76"/>
  </g>
</svg>