<svg width="620" height="420" viewBox="0 0 620 420" fill="none" xmlns="http://www.w3.org/2000/svg">
<defs><linearGradient id="bg" x1="40" y1="20" x2="580" y2="400"><stop stop-color="#F4FBFF"/><stop offset=".5" stop-color="#F1EEFF"/><stop offset="1" stop-color="#FFF8EA"/></linearGradient><linearGradient id="b" x1="180" y1="90" x2="500" y2="340"><stop stop-color="#6E70FF"/><stop offset="1" stop-color="#006EF4"/></linearGradient><filter id="s"><feDropShadow dx="0" dy="22" stdDeviation="24" flood-color="#4456AA" flood-opacity=".2"/></filter></defs>
<rect width="620" height="420" rx="42" fill="url(#bg)"/><circle cx="500" cy="104" r="78" fill="#EFE7FF" fill-opacity=".76"/><circle cx="170" cy="285" r="66" fill="#DDF3FF" fill-opacity=".7"/>
<g filter="url(#s)"><rect x="188" y="60" width="292" height="220" rx="22" fill="#101832"/><rect x="206" y="82" width="256" height="174" rx="12" fill="white"/><text x="226" y="112" fill="#101832" font-family="Arial" font-size="13" font-weight="700">Security Overview</text><circle cx="232" cy="144" r="7" fill="#35B86F"/><circle cx="232" cy="174" r="7" fill="#F7A925"/><circle cx="232" cy="204" r="7" fill="#35B86F"/><path d="M250 144h70M250 174h70M250 204h70" stroke="#B8C1D8" stroke-width="7" stroke-linecap="round"/><path d="M350 144h42M350 174h42M350 204h42" stroke="#32B875" stroke-width="5" stroke-linecap="round"/><rect x="226" y="222" width="66" height="48" rx="8" fill="#F3F6FF"/><rect x="310" y="222" width="66" height="48" rx="8" fill="#F3F6FF"/><rect x="394" y="222" width="66" height="48" rx="8" fill="#F3F6FF"/><text x="238" y="252" fill="#101832" font-family="Arial" font-size="22" font-weight="700">12</text><text x="322" y="252" fill="#101832" font-family="Arial" font-size="22" font-weight="700">28</text><text x="406" y="252" fill="#F4870E" font-family="Arial" font-size="18" font-weight="700">3</text></g>
<path d="M174 150l76 28v54c0 52-34 85-76 102-42-17-76-50-76-102v-54l76-28Z" fill="url(#b)" stroke="#DDE7FF" stroke-width="6"/><path d="M142 228l22 23 43-52" stroke="white" stroke-width="13" stroke-linecap="round" stroke-linejoin="round"/>
<g filter="url(#s)"><rect x="412" y="92" width="110" height="250" rx="28" fill="#162047"/><rect x="426" y="114" width="82" height="204" rx="18" fill="white"/><text x="440" y="152" fill="#101832" font-family="Arial" font-size="12" font-weight="700">Device Secure</text><circle cx="468" cy="182" r="20" fill="#5BC779"/><path d="M458 181l8 8 16-18" stroke="white" stroke-width="6" stroke-linecap="round" stroke-linejoin="round"/><path d="M442 224h46M442 252h46M442 280h46" stroke="#B8C1D8" stroke-width="6" stroke-linecap="round"/><circle cx="498" cy="224" r="5" fill="#35B86F"/><circle cx="498" cy="252" r="5" fill="#35B86F"/><circle cx="498" cy="280" r="5" fill="#35B86F"/></g>
<rect x="502" y="144" width="92" height="134" rx="18" fill="#1B254B"/><rect x="528" y="200" width="42" height="38" rx="8" fill="url(#b)"/><path d="M538 200v-20c0-16 22-16 22 0v20" stroke="#DDE7FF" stroke-width="8" stroke-linecap="round"/>
<circle cx="448" cy="306" r="42" fill="url(#b)"/><path d="M426 306a22 22 0 0138-15M470 306a22 22 0 01-38 15" stroke="white" stroke-width="7" stroke-linecap="round"/><path d="M464 286v17h-17M432 326v-17h17" stroke="white" stroke-width="7" stroke-linecap="round" stroke-linejoin="round"/>
</svg>